<mxfile host="65bd71144e">
    <diagram id="ZN-Y50-iOPjWMrZlISFB" name="Page-1">
        <mxGraphModel dx="369" dy="597" grid="1" gridSize="10" guides="1" tooltips="1" connect="1" arrows="1" fold="1" page="1" pageScale="1" pageWidth="827" pageHeight="1169" background="#ffffff" math="0" shadow="0">
            <root>
                <mxCell id="0"/>
                <mxCell id="1" parent="0"/>
                <mxCell id="12" value="" style="group;fontColor=#000000;" parent="1" vertex="1" connectable="0">
                    <mxGeometry x="240" y="150" width="150" height="210" as="geometry"/>
                </mxCell>
                <mxCell id="3" value="" style="whiteSpace=wrap;html=1;fillColor=#FFFFFF;fontColor=#000000;strokeColor=#000000;fontSize=17;labelPosition=center;verticalLabelPosition=middle;align=center;verticalAlign=middle;" parent="12" vertex="1">
                    <mxGeometry width="150" height="210" as="geometry"/>
                </mxCell>
                <mxCell id="9" value="&lt;span style=&quot;&quot;&gt;屏幕驱动 IC&lt;/span&gt;" style="text;html=1;strokeColor=none;fillColor=none;align=center;verticalAlign=middle;whiteSpace=wrap;rounded=0;fontSize=17;fontColor=#000000;" parent="12" vertex="1">
                    <mxGeometry x="30" y="20" width="90" height="60" as="geometry"/>
                </mxCell>
                <mxCell id="10" value="GRAM" style="rounded=1;whiteSpace=wrap;html=1;fontSize=17;strokeColor=#000000;fillColor=#FFFFFF;arcSize=14;fontColor=#000000;" parent="12" vertex="1">
                    <mxGeometry x="45" y="100" width="65" height="100" as="geometry"/>
                </mxCell>
                <mxCell id="2" value="" style="whiteSpace=wrap;html=1;fillColor=#FFFFFF;fontColor=#000000;strokeColor=#000000;fontSize=17;" parent="1" vertex="1">
                    <mxGeometry x="100" y="150" width="100" height="210" as="geometry"/>
                </mxCell>
                <mxCell id="4" value="LCD &lt;br&gt;显示电路" style="whiteSpace=wrap;html=1;fillColor=#FFFFFF;fontColor=#000000;strokeColor=#000000;fontSize=17;" parent="1" vertex="1">
                    <mxGeometry x="440" y="150" width="90" height="210" as="geometry"/>
                </mxCell>
                <mxCell id="11" value="" style="shape=flexArrow;endArrow=classic;html=1;fontSize=17;fontColor=#000000;exitX=1.01;exitY=0.499;exitDx=0;exitDy=0;entryX=0;entryY=0.5;entryDx=0;entryDy=0;strokeColor=#000000;width=31.515151515151516;endSize=5.0606060606060606;fillColor=#FFFFFF;exitPerimeter=0;" parent="1" source="18" target="10" edge="1">
                    <mxGeometry width="50" height="50" relative="1" as="geometry">
                        <mxPoint x="300" y="320" as="sourcePoint"/>
                        <mxPoint x="350" y="270" as="targetPoint"/>
                    </mxGeometry>
                </mxCell>
                <mxCell id="14" value="刷屏数据" style="edgeLabel;html=1;align=center;verticalAlign=middle;resizable=0;points=[];labelBackgroundColor=none;fontColor=#000000;" parent="11" vertex="1" connectable="0">
                    <mxGeometry x="-0.651" y="-1" relative="1" as="geometry">
                        <mxPoint x="25" y="-1" as="offset"/>
                    </mxGeometry>
                </mxCell>
                <mxCell id="13" value="" style="shape=flexArrow;endArrow=classic;html=1;fontSize=17;fontColor=#000000;exitX=1;exitY=0.5;exitDx=0;exitDy=0;entryX=0;entryY=0.713;entryDx=0;entryDy=0;strokeColor=#000000;width=31.515151515151516;endSize=5.0606060606060606;entryPerimeter=0;fillColor=#FFFFFF;" parent="1" target="4" edge="1">
                    <mxGeometry width="50" height="50" relative="1" as="geometry">
                        <mxPoint x="350" y="299.7" as="sourcePoint"/>
                        <mxPoint x="435" y="299.7" as="targetPoint"/>
                    </mxGeometry>
                </mxCell>
                <mxCell id="17" value="显示数据" style="edgeLabel;html=1;align=center;verticalAlign=middle;resizable=0;points=[];fontColor=#000000;labelBackgroundColor=none;" parent="13" vertex="1" connectable="0">
                    <mxGeometry x="-0.4148" y="1" relative="1" as="geometry">
                        <mxPoint x="13" y="1" as="offset"/>
                    </mxGeometry>
                </mxCell>
                <mxCell id="18" value="I2C/&lt;br&gt;SPI/&lt;br&gt;8080" style="text;html=1;align=center;verticalAlign=middle;resizable=0;points=[];autosize=1;strokeColor=none;fillColor=none;fontColor=#000000;" parent="1" vertex="1">
                    <mxGeometry x="160" y="275" width="40" height="50" as="geometry"/>
                </mxCell>
                <mxCell id="19" value="&lt;span style=&quot;font-size: 17px&quot;&gt;ESP&lt;/span&gt;" style="text;html=1;align=center;verticalAlign=middle;resizable=0;points=[];autosize=1;strokeColor=none;fillColor=none;fontColor=#000000;" parent="1" vertex="1">
                    <mxGeometry x="125" y="200" width="50" height="20" as="geometry"/>
                </mxCell>
            </root>
        </mxGraphModel>
    </diagram>
</mxfile>